<mxfile host="Electron" agent="Mozilla/5.0 (X11; Linux x86_64) AppleWebKit/537.36 (KHTML, like Gecko) draw.io/26.0.9 Chrome/128.0.6613.186 Electron/32.2.5 Safari/537.36" version="26.0.9">
  <diagram name="Page-1" id="-H_mtQnk-PTXWXPvYvuk">
    <mxGraphModel dx="2008" dy="1358" grid="1" gridSize="10" guides="1" tooltips="1" connect="1" arrows="1" fold="1" page="1" pageScale="1" pageWidth="1169" pageHeight="827" math="0" shadow="0">
      <root>
        <mxCell id="0" />
        <mxCell id="1" parent="0" />
        <mxCell id="LbU3xU6buKqwQcndJY7--15" value="" style="rounded=1;whiteSpace=wrap;html=1;fillColor=#f5f5f5;fontColor=#333333;strokeColor=#666666;" parent="1" vertex="1">
          <mxGeometry x="40" y="20" width="970" height="800" as="geometry" />
        </mxCell>
        <mxCell id="AQoTyAOBwtpcITkI7_EM-16" value="" style="rounded=1;whiteSpace=wrap;html=1;dashed=1;dashPattern=8 8;glass=0;shadow=0;fillColor=none;align=left;" parent="1" vertex="1">
          <mxGeometry x="110" y="430" width="330" height="340" as="geometry" />
        </mxCell>
        <mxCell id="zA23MoTUsTF4_91t8viU-3" value="pymongo-api" style="rounded=1;whiteSpace=wrap;html=1;fillColor=#1ba1e2;fontColor=#ffffff;strokeColor=#006EAF;" parent="1" vertex="1">
          <mxGeometry x="380" y="30" width="120" height="60" as="geometry" />
        </mxCell>
        <mxCell id="LbU3xU6buKqwQcndJY7--1" value="MongoDB&lt;div&gt;shard1&lt;/div&gt;&lt;div&gt;master&lt;/div&gt;" style="shape=cylinder3;whiteSpace=wrap;html=1;boundedLbl=1;backgroundOutline=1;size=15;fillColor=#dae8fc;strokeColor=#6c8ebf;" parent="1" vertex="1">
          <mxGeometry x="240" y="460" width="80" height="100" as="geometry" />
        </mxCell>
        <mxCell id="LbU3xU6buKqwQcndJY7--5" value="MongoDB&lt;div&gt;shard2&lt;/div&gt;&lt;div&gt;master&lt;/div&gt;" style="shape=cylinder3;whiteSpace=wrap;html=1;boundedLbl=1;backgroundOutline=1;size=15;fillColor=#dae8fc;strokeColor=#6c8ebf;" parent="1" vertex="1">
          <mxGeometry x="600" y="460" width="80" height="100" as="geometry" />
        </mxCell>
        <mxCell id="LbU3xU6buKqwQcndJY7--7" value="mongos-router" style="rounded=1;whiteSpace=wrap;html=1;fillColor=#dae8fc;strokeColor=#6c8ebf;" parent="1" vertex="1">
          <mxGeometry x="380" y="280" width="120" height="60" as="geometry" />
        </mxCell>
        <mxCell id="LbU3xU6buKqwQcndJY7--8" value="configSrv&lt;div&gt;(Конфигурационный сервер)&lt;/div&gt;" style="rounded=1;whiteSpace=wrap;html=1;fillColor=#f8cecc;strokeColor=#b85450;" parent="1" vertex="1">
          <mxGeometry x="820" y="270" width="130" height="70" as="geometry" />
        </mxCell>
        <mxCell id="LbU3xU6buKqwQcndJY7--9" value="" style="endArrow=classic;html=1;rounded=0;exitX=0.5;exitY=1;exitDx=0;exitDy=0;strokeWidth=2;" parent="1" source="mt5vHw7wnOWDeVbUdnSA-1" target="LbU3xU6buKqwQcndJY7--7" edge="1">
          <mxGeometry width="50" height="50" relative="1" as="geometry">
            <mxPoint x="240" y="470" as="sourcePoint" />
            <mxPoint x="290" y="420" as="targetPoint" />
          </mxGeometry>
        </mxCell>
        <mxCell id="LbU3xU6buKqwQcndJY7--10" value="" style="endArrow=classic;html=1;rounded=0;exitX=0.25;exitY=1;exitDx=0;exitDy=0;entryX=0.5;entryY=0;entryDx=0;entryDy=0;entryPerimeter=0;strokeWidth=2;" parent="1" source="LbU3xU6buKqwQcndJY7--7" target="LbU3xU6buKqwQcndJY7--1" edge="1">
          <mxGeometry width="50" height="50" relative="1" as="geometry">
            <mxPoint x="240" y="470" as="sourcePoint" />
            <mxPoint x="290" y="420" as="targetPoint" />
          </mxGeometry>
        </mxCell>
        <mxCell id="LbU3xU6buKqwQcndJY7--11" value="" style="endArrow=classic;html=1;rounded=0;exitX=0.75;exitY=1;exitDx=0;exitDy=0;entryX=0.5;entryY=0;entryDx=0;entryDy=0;entryPerimeter=0;strokeWidth=2;" parent="1" source="LbU3xU6buKqwQcndJY7--7" target="LbU3xU6buKqwQcndJY7--5" edge="1">
          <mxGeometry width="50" height="50" relative="1" as="geometry">
            <mxPoint x="240" y="470" as="sourcePoint" />
            <mxPoint x="290" y="420" as="targetPoint" />
          </mxGeometry>
        </mxCell>
        <mxCell id="LbU3xU6buKqwQcndJY7--12" value="" style="endArrow=classic;html=1;rounded=0;strokeWidth=2;entryX=0.008;entryY=0.6;entryDx=0;entryDy=0;exitX=1;exitY=0.5;exitDx=0;exitDy=0;entryPerimeter=0;" parent="1" source="LbU3xU6buKqwQcndJY7--7" target="LbU3xU6buKqwQcndJY7--8" edge="1">
          <mxGeometry width="50" height="50" relative="1" as="geometry">
            <mxPoint x="240" y="470" as="sourcePoint" />
            <mxPoint x="580" y="350" as="targetPoint" />
            <Array as="points" />
          </mxGeometry>
        </mxCell>
        <mxCell id="AQoTyAOBwtpcITkI7_EM-1" value="MongoDB&lt;div&gt;shard1&lt;/div&gt;&lt;div&gt;replica1&lt;/div&gt;" style="shape=cylinder3;whiteSpace=wrap;html=1;boundedLbl=1;backgroundOutline=1;size=15;fillColor=#b0e3e6;strokeColor=#0e8088;" parent="1" vertex="1">
          <mxGeometry x="140" y="610" width="80" height="110" as="geometry" />
        </mxCell>
        <mxCell id="AQoTyAOBwtpcITkI7_EM-4" value="MongoDB&lt;div&gt;shard1&lt;/div&gt;&lt;div&gt;replica2&lt;/div&gt;" style="shape=cylinder3;whiteSpace=wrap;html=1;boundedLbl=1;backgroundOutline=1;size=15;fillColor=#b0e3e6;strokeColor=#0e8088;" parent="1" vertex="1">
          <mxGeometry x="340" y="610" width="80" height="110" as="geometry" />
        </mxCell>
        <mxCell id="AQoTyAOBwtpcITkI7_EM-5" value="MongoDB&lt;div&gt;shard2&lt;/div&gt;&lt;div&gt;replica1&lt;/div&gt;" style="shape=cylinder3;whiteSpace=wrap;html=1;boundedLbl=1;backgroundOutline=1;size=15;fillColor=#b0e3e6;strokeColor=#0e8088;" parent="1" vertex="1">
          <mxGeometry x="520" y="610" width="80" height="110" as="geometry" />
        </mxCell>
        <mxCell id="AQoTyAOBwtpcITkI7_EM-6" value="MongoDB&lt;div&gt;shard2&lt;/div&gt;&lt;div&gt;replica2&lt;/div&gt;" style="shape=cylinder3;whiteSpace=wrap;html=1;boundedLbl=1;backgroundOutline=1;size=15;fillColor=#b0e3e6;strokeColor=#0e8088;" parent="1" vertex="1">
          <mxGeometry x="710" y="610" width="80" height="110" as="geometry" />
        </mxCell>
        <mxCell id="AQoTyAOBwtpcITkI7_EM-8" value="" style="endArrow=classic;html=1;rounded=0;exitX=0.145;exitY=1;exitDx=0;exitDy=-4.35;exitPerimeter=0;entryX=0.5;entryY=0;entryDx=0;entryDy=0;entryPerimeter=0;strokeColor=light-dark(#0000FF,#EDEDED);strokeWidth=2;" parent="1" source="LbU3xU6buKqwQcndJY7--1" target="AQoTyAOBwtpcITkI7_EM-1" edge="1">
          <mxGeometry width="50" height="50" relative="1" as="geometry">
            <mxPoint x="650" y="500" as="sourcePoint" />
            <mxPoint x="700" y="450" as="targetPoint" />
          </mxGeometry>
        </mxCell>
        <mxCell id="AQoTyAOBwtpcITkI7_EM-9" value="replication" style="edgeLabel;html=1;align=center;verticalAlign=middle;resizable=0;points=[];" parent="AQoTyAOBwtpcITkI7_EM-8" vertex="1" connectable="0">
          <mxGeometry x="0.0127" y="-3" relative="1" as="geometry">
            <mxPoint as="offset" />
          </mxGeometry>
        </mxCell>
        <mxCell id="AQoTyAOBwtpcITkI7_EM-10" value="" style="endArrow=classic;html=1;rounded=0;exitX=0.855;exitY=1;exitDx=0;exitDy=-4.35;exitPerimeter=0;entryX=0.5;entryY=0;entryDx=0;entryDy=0;entryPerimeter=0;strokeColor=#0000FF;strokeWidth=2;" parent="1" source="LbU3xU6buKqwQcndJY7--1" target="AQoTyAOBwtpcITkI7_EM-4" edge="1">
          <mxGeometry width="50" height="50" relative="1" as="geometry">
            <mxPoint x="370" y="481" as="sourcePoint" />
            <mxPoint x="320" y="570" as="targetPoint" />
          </mxGeometry>
        </mxCell>
        <mxCell id="AQoTyAOBwtpcITkI7_EM-11" value="replication" style="edgeLabel;html=1;align=center;verticalAlign=middle;resizable=0;points=[];" parent="AQoTyAOBwtpcITkI7_EM-10" vertex="1" connectable="0">
          <mxGeometry x="0.0127" y="-3" relative="1" as="geometry">
            <mxPoint as="offset" />
          </mxGeometry>
        </mxCell>
        <mxCell id="AQoTyAOBwtpcITkI7_EM-12" value="" style="endArrow=classic;html=1;rounded=0;exitX=0.145;exitY=1;exitDx=0;exitDy=-4.35;exitPerimeter=0;entryX=0.5;entryY=0;entryDx=0;entryDy=0;entryPerimeter=0;strokeColor=#0000FF;strokeWidth=2;" parent="1" source="LbU3xU6buKqwQcndJY7--5" target="AQoTyAOBwtpcITkI7_EM-5" edge="1">
          <mxGeometry width="50" height="50" relative="1" as="geometry">
            <mxPoint x="310" y="505" as="sourcePoint" />
            <mxPoint x="260" y="594" as="targetPoint" />
          </mxGeometry>
        </mxCell>
        <mxCell id="AQoTyAOBwtpcITkI7_EM-13" value="replication" style="edgeLabel;html=1;align=center;verticalAlign=middle;resizable=0;points=[];" parent="AQoTyAOBwtpcITkI7_EM-12" vertex="1" connectable="0">
          <mxGeometry x="0.0127" y="-3" relative="1" as="geometry">
            <mxPoint as="offset" />
          </mxGeometry>
        </mxCell>
        <mxCell id="AQoTyAOBwtpcITkI7_EM-14" value="" style="endArrow=classic;html=1;rounded=0;entryX=0.5;entryY=0;entryDx=0;entryDy=0;entryPerimeter=0;exitX=0.855;exitY=1;exitDx=0;exitDy=-4.35;exitPerimeter=0;strokeWidth=2;strokeColor=light-dark(#0000FF,#EDEDED);" parent="1" source="LbU3xU6buKqwQcndJY7--5" target="AQoTyAOBwtpcITkI7_EM-6" edge="1">
          <mxGeometry width="50" height="50" relative="1" as="geometry">
            <mxPoint x="600" y="530" as="sourcePoint" />
            <mxPoint x="570" y="570" as="targetPoint" />
          </mxGeometry>
        </mxCell>
        <mxCell id="AQoTyAOBwtpcITkI7_EM-15" value="replication" style="edgeLabel;html=1;align=center;verticalAlign=middle;resizable=0;points=[];" parent="AQoTyAOBwtpcITkI7_EM-14" vertex="1" connectable="0">
          <mxGeometry x="0.0127" y="-3" relative="1" as="geometry">
            <mxPoint as="offset" />
          </mxGeometry>
        </mxCell>
        <mxCell id="AQoTyAOBwtpcITkI7_EM-17" value="&lt;font style=&quot;color: rgb(0, 0, 255);&quot;&gt;Shard1&lt;/font&gt;" style="text;html=1;align=center;verticalAlign=middle;whiteSpace=wrap;rounded=0;" parent="1" vertex="1">
          <mxGeometry x="120" y="450" width="60" height="30" as="geometry" />
        </mxCell>
        <mxCell id="AQoTyAOBwtpcITkI7_EM-18" value="" style="rounded=1;whiteSpace=wrap;html=1;dashed=1;dashPattern=8 8;glass=0;shadow=0;fillColor=none;align=left;" parent="1" vertex="1">
          <mxGeometry x="490" y="430" width="330" height="340" as="geometry" />
        </mxCell>
        <mxCell id="AQoTyAOBwtpcITkI7_EM-19" value="&lt;font style=&quot;color: rgb(0, 0, 255);&quot;&gt;Shard2&lt;/font&gt;" style="text;html=1;align=center;verticalAlign=middle;whiteSpace=wrap;rounded=0;" parent="1" vertex="1">
          <mxGeometry x="500" y="450" width="60" height="30" as="geometry" />
        </mxCell>
        <mxCell id="AQoTyAOBwtpcITkI7_EM-21" value="" style="rounded=1;whiteSpace=wrap;html=1;dashed=1;dashPattern=8 8;glass=0;shadow=0;fillColor=none;align=left;" parent="1" vertex="1">
          <mxGeometry x="80" y="405" width="770" height="390" as="geometry" />
        </mxCell>
        <mxCell id="AQoTyAOBwtpcITkI7_EM-25" value="" style="endArrow=classic;html=1;rounded=0;entryX=0.5;entryY=1;entryDx=0;entryDy=0;exitX=1;exitY=0.25;exitDx=0;exitDy=0;fontSize=12;strokeWidth=2;" parent="1" source="AQoTyAOBwtpcITkI7_EM-21" target="LbU3xU6buKqwQcndJY7--8" edge="1">
          <mxGeometry width="50" height="50" relative="1" as="geometry">
            <mxPoint x="870" y="500" as="sourcePoint" />
            <mxPoint x="920" y="450" as="targetPoint" />
            <Array as="points">
              <mxPoint x="890" y="500" />
            </Array>
          </mxGeometry>
        </mxCell>
        <mxCell id="mt5vHw7wnOWDeVbUdnSA-2" value="" style="endArrow=classic;html=1;rounded=0;exitX=0.5;exitY=1;exitDx=0;exitDy=0;strokeWidth=2;" parent="1" source="zA23MoTUsTF4_91t8viU-3" target="mt5vHw7wnOWDeVbUdnSA-1" edge="1">
          <mxGeometry width="50" height="50" relative="1" as="geometry">
            <mxPoint x="440" y="90" as="sourcePoint" />
            <mxPoint x="440" y="280" as="targetPoint" />
          </mxGeometry>
        </mxCell>
        <mxCell id="mt5vHw7wnOWDeVbUdnSA-1" value="" style="image;sketch=0;aspect=fixed;html=1;points=[];align=center;fontSize=12;image=img/lib/mscae/Cache_Redis_Product.svg;" parent="1" vertex="1">
          <mxGeometry x="396.18" y="150" width="87.63" height="73.6" as="geometry" />
        </mxCell>
        <mxCell id="mt5vHw7wnOWDeVbUdnSA-3" value="&lt;font style=&quot;font-size: 16px; color: rgb(255, 255, 255);&quot;&gt;&lt;b style=&quot;&quot;&gt;Redis&lt;/b&gt;&lt;/font&gt;" style="text;html=1;align=center;verticalAlign=middle;whiteSpace=wrap;rounded=0;" parent="1" vertex="1">
          <mxGeometry x="410" y="180" width="60" height="30" as="geometry" />
        </mxCell>
      </root>
    </mxGraphModel>
  </diagram>
</mxfile>
